<?xml version="1.0" encoding="UTF-8"?>
<!DOCTYPE svg PUBLIC "-//W3C//DTD SVG 1.1//EN" "http://www.w3.org/Graphics/SVG/1.1/DTD/svg11.dtd">
<svg xmlns="http://www.w3.org/2000/svg" version="1.1" width="256px" height="256px" style="shape-rendering:geometricPrecision; text-rendering:geometricPrecision; image-rendering:optimizeQuality; fill-rule:evenodd; clip-rule:evenodd" xmlns:xlink="http://www.w3.org/1999/xlink">
<g><path style="opacity:0.947" fill="#fefffe" d="M 38.5,24.5 C 97.8343,24.3333 157.168,24.5 216.5,25C 223.667,26.8333 228.167,31.3333 230,38.5C 230.667,97.8333 230.667,157.167 230,216.5C 228.167,223.667 223.667,228.167 216.5,230C 157.167,230.667 97.8333,230.667 38.5,230C 31.3333,228.167 26.8333,223.667 25,216.5C 24.3333,157.167 24.3333,97.8333 25,38.5C 27.0166,31.3185 31.5166,26.6518 38.5,24.5 Z M 42.5,42.5 C 99.1667,42.5 155.833,42.5 212.5,42.5C 212.5,99.1667 212.5,155.833 212.5,212.5C 155.833,212.5 99.1667,212.5 42.5,212.5C 42.5,155.833 42.5,99.1667 42.5,42.5 Z"/></g>
<g><path style="opacity:0.938" fill="#fefffe" d="M 87.5,67.5 C 102.088,65.5382 112.255,71.2049 118,84.5C 118.953,87.4318 119.453,90.4318 119.5,93.5C 113.463,93.8293 107.463,93.4959 101.5,92.5C 99.6456,87.1272 95.9789,84.9606 90.5,86C 88.3333,86.8333 86.8333,88.3333 86,90.5C 85.3333,103.833 85.3333,117.167 86,130.5C 87.9473,134.557 91.114,136.057 95.5,135C 98.3633,133.636 100.363,131.47 101.5,128.5C 107.463,127.504 113.463,127.171 119.5,127.5C 116.978,146.186 106.312,154.686 87.5,153C 76.9911,150.491 70.4911,143.991 68,133.5C 67.3333,117.833 67.3333,102.167 68,86.5C 71.1211,76.5437 77.6211,70.2104 87.5,67.5 Z"/></g>
<g><path style="opacity:0.933" fill="#fefffe" d="M 127.5,67.5 C 133.537,67.1707 139.537,67.5041 145.5,68.5C 149.488,83.4518 153.321,98.4518 157,113.5C 161.461,98.3214 165.295,82.9881 168.5,67.5C 174.833,67.5 181.167,67.5 187.5,67.5C 180.986,95.5583 174.152,123.558 167,151.5C 164.106,152.78 160.939,153.446 157.5,153.5C 154.248,153.479 151.081,153.146 148,152.5C 140.689,124.257 133.856,95.924 127.5,67.5 Z"/></g>
<g><path style="opacity:0.944" fill="#fefffe" d="M 67.5,169.5 C 107.5,169.5 147.5,169.5 187.5,169.5C 187.5,175.5 187.5,181.5 187.5,187.5C 147.5,187.5 107.5,187.5 67.5,187.5C 67.5,181.5 67.5,175.5 67.5,169.5 Z"/></g>
</svg>
